<?xml version="1.0" encoding="utf-8"?>
<!-- Generator: Adobe Illustrator 22.1.0, SVG Export Plug-In . SVG Version: 6.00 Build 0)  -->
<svg version="1.1" xmlns="http://www.w3.org/2000/svg" xmlns:xlink="http://www.w3.org/1999/xlink" x="0px" y="0px"
	 viewBox="0 0 1000 1000" style="enable-background:new 0 0 1000 1000;" xml:space="preserve">
<style type="text/css">
	.st0{fill:#E0C37F;}
	.st1{fill:#4D4D4D;}
	.st2{fill:#62B4EC;}
	.st3{fill:#333333;}
	.st4{font-family:'RageItalic';}
	.st5{font-size:48px;}
	.st6{fill:none;stroke:#333333;stroke-width:3;stroke-miterlimit:10;}
	.st7{fill:none;stroke:#333333;stroke-width:10;stroke-miterlimit:10;}
	.st8{fill:none;stroke:#333333;stroke-width:12;stroke-miterlimit:10;}
	.st9{fill:#B3B3B3;}
</style>
<g id="Layer_2">
	<g>
		<path class="st0" d="M500,993c-66.6,0-131.1-13-191.9-38.7c-58.7-24.8-111.4-60.4-156.7-105.7c-45.3-45.3-80.8-98-105.7-156.7
			C20,631.1,7,566.6,7,500c0-87.3,23.1-173.1,66.9-248.1C116.3,179.1,177.1,118,249.7,75.2C325.2,30.6,411.8,7,500,7
			c66.6,0,131.1,13,191.9,38.7c58.7,24.8,111.4,60.4,156.7,105.7c45.3,45.3,80.8,98,105.7,156.7C980,368.9,993,433.4,993,500
			s-13,131.1-38.7,191.9c-24.8,58.7-60.4,111.4-105.7,156.7s-98,80.8-156.7,105.7C631.1,980,566.6,993,500,993z"/>
		<path class="st1" d="M500,13c269,0,487,218,487,487S769,987,500,987S13,769,13,500c0-178.7,96.3-334.9,239.7-419.7
			C325.2,37.6,409.7,13,500,13 M500,1c-45.3,0-90.2,6.1-133.5,18.1c-42,11.6-82.3,28.8-119.9,51c-73.4,43.4-135,105.2-177.9,178.9
			c-21.8,37.3-38.6,77.3-50,118.9C7,410.6,1,455.1,1,500c0,67.4,13.2,132.7,39.2,194.2c25.1,59.4,61.1,112.8,106.9,158.6
			c45.8,45.8,99.2,81.8,158.6,106.9c61.5,26,126.9,39.2,194.2,39.2s132.7-13.2,194.2-39.2c59.4-25.1,112.8-61.1,158.6-106.9
			c45.8-45.8,81.8-99.2,106.9-158.6c26-61.5,39.2-126.9,39.2-194.2s-13.2-132.7-39.2-194.2c-25.1-59.4-61.1-112.8-106.9-158.6
			C807,101.3,753.7,65.4,694.2,40.2C632.7,14.2,567.4,1,500,1L500,1z"/>
	</g>
	<path class="st2" d="M720.9,66.5C960.4,188.9,1055.4,482.2,933,721.7s-415.7,334.5-655.2,212.1
		c-159.1-81.3,155.8-294.6,213.5-325.5C816.1,434,481.4-55.9,720.9,66.5z"/>
	<circle class="st3" cx="500" cy="34" r="8"/>
	<circle class="st3" cx="500" cy="966" r="8"/>
	<circle class="st3" cx="34" cy="500" r="8"/>
	<circle class="st3" cx="966" cy="500" r="8"/>
	<circle class="st3" cx="268" cy="904" r="8"/>
	<circle class="st3" cx="734" cy="98" r="8"/>
	<circle class="st3" cx="100" cy="734" r="8"/>
	<circle class="st3" cx="904" cy="268" r="8"/>
	<circle class="st3" cx="734" cy="904" r="8"/>
	<circle class="st3" cx="268" cy="98" r="8"/>
	<circle class="st3" cx="904" cy="734" r="8"/>
	<circle class="st3" cx="98" cy="268" r="8"/>
	<g>
		<g>
			<path class="st3" d="M91.2,522.7c4.2,13.7,14.8,19,26.8,19c25.6,0,31.7-25.1,32.1-54.6c-4.8,12.5-16.3,18.6-31.5,18.6
				c-18.4,0-32.1-12.2-32.1-31.5c0-18.6,13.7-32.1,32.4-32.1c23.2,0,34.1,15.7,34.1,44.6c0,26.6-4.6,57.7-35.1,57.7
				c-18,0-26.5-9.8-29.8-21.7H91.2z M89.6,473.9c0,19.7,14.4,28.9,29.1,28.9c22.9,0,30.5-13.8,30.5-23.9c0-12.7-5.6-34.1-30.7-34.1
				C102,444.8,89.6,457.2,89.6,473.9z"/>
		</g>
	</g>
	<g>
		<g>
			<path class="st3" d="M528,822.2c-4.2-11.4-12.5-17.4-25.2-17.4c-24.2,0-33.8,23.6-33.6,54.6c4.2-12.7,15.3-22.9,33-22.9
				c17.9,0,32.4,12.4,32.4,32.7c0,20.4-12.8,35.3-33,35.3c-24.3,0-35.3-18.6-35.3-48.7c0-26.8,9.2-53.7,36.4-53.7
				c16.4,0,25.1,9.4,28.4,20.2H528z M531.5,869.4c0-17.6-12.1-30.1-29.4-30.1c-22.6,0-31.4,17.1-31.4,28.1c0,7.3,3.9,34.3,31.1,34.3
				C518.6,901.7,531.5,889.7,531.5,869.4z"/>
		</g>
	</g>
	<g>
		<g>
			<path class="st3" d="M849,465.5c3.6-14,13.2-23.5,31.1-23.5c18.6,0,28.7,11.5,28.7,25.3c0,12.2-7.6,19.4-17.9,21.6v0.1
				c13.4,2.7,22.5,11.8,22.5,25.6c0,17.4-12.7,29.7-33.4,29.7c-22,0-31.5-12.5-34.1-25.2h3.2c3.2,12.7,13.2,22.3,31,22.3
				c18.7,0,30.2-10.8,30.2-26.6c0-14.7-11.8-24.3-30.1-24.3h-7.6v-2.9h7.5c19.2,0,25.6-9.6,25.6-20.2c0-12.7-9.2-22.6-25.5-22.6
				c-15.8,0-24.2,7.6-28.1,20.6H849z"/>
		</g>
	</g>
	<g>
		<g>
			<path class="st3" d="M464.4,182.4V87.5c-7.8,7.2-19.3,12.7-24.9,14.7v-2.9c6.9-2.9,17-8.1,25.5-16.1h2.4v99.2H464.4z"/>
			<path class="st3" d="M490.4,182.4V182c0-6.8,4.3-22.5,34.7-41.2c18.9-11.7,25.8-16.7,25.8-30.2c0-15.4-10.4-25.6-26.8-25.6
				c-14.4,0-25.1,7.6-28.8,24.8h-3c3-17.4,14.8-27.6,32-27.6c18.7,0,29.8,12.1,29.8,28.2c0,15.3-8.1,21-27.5,33
				c-21.5,13.2-30.8,25.2-33,36.4h66.2l-0.6,2.7H490.4z"/>
		</g>
	</g>
	<text transform="matrix(1 0 0 1 441.3174 340.1721)" class="st3 st4 st5">Ensari</text>
</g>
<g id="Layer_1">
	<line class="st6" x1="635" y1="500" x2="85" y2="500"/>
	<line class="st7" x1="575" y1="500" x2="225" y2="500"/>
	<line class="st8" x1="575" y1="500" x2="275" y2="500"/>
	<circle class="st3" cx="500" cy="500" r="12"/>
	<circle class="st9" cx="500" cy="500" r="6"/>
</g>
</svg>
